<?xml version="1.0" encoding="UTF-8"?>
<svg fill="none" version="1.1" viewBox="0 0 28.016 28.016" xml:space="preserve" xmlns="http://www.w3.org/2000/svg" xmlns:xlink="http://www.w3.org/1999/xlink"><defs><filter id="ao" x="2.3281" y="10.881" width="27.916" height="19.998" color-interpolation-filters="sRGB" filterUnits="userSpaceOnUse"><feFlood flood-opacity="0" result="BackgroundImageFix"/><feBlend in="SourceGraphic" in2="BackgroundImageFix" result="shape"/><feColorMatrix in="SourceAlpha" result="hardAlpha" values="0 0 0 0 0 0 0 0 0 0 0 0 0 0 0 0 0 0 127 0"/><feOffset dx="0.15" dy="-0.15"/><feGaussianBlur stdDeviation="0.25"/><feComposite in2="hardAlpha" k2="-1" k3="1" operator="arithmetic"/><feColorMatrix values="0 0 0 0 0.305882 0 0 0 0 0.541176 0 0 0 0 0.780392 0 0 0 1 0"/><feBlend in2="shape" result="effect1_innerShadow_18_20736"/></filter><filter id="al" x="2.2281" y="9.9625" width="27.966" height="19.948" color-interpolation-filters="sRGB" filterUnits="userSpaceOnUse"><feFlood flood-opacity="0" result="BackgroundImageFix"/><feBlend in="SourceGraphic" in2="BackgroundImageFix" result="shape"/><feColorMatrix in="SourceAlpha" result="hardAlpha" values="0 0 0 0 0 0 0 0 0 0 0 0 0 0 0 0 0 0 127 0"/><feOffset dx="-0.1"/><feGaussianBlur stdDeviation="0.15"/><feComposite in2="hardAlpha" k2="-1" k3="1" operator="arithmetic"/><feColorMatrix values="0 0 0 0 0.45098 0 0 0 0 0.941176 0 0 0 0 1 0 0 0 1 0"/><feBlend in2="shape" result="effect1_innerShadow_18_20736"/><feColorMatrix in="SourceAlpha" result="hardAlpha" values="0 0 0 0 0 0 0 0 0 0 0 0 0 0 0 0 0 0 127 0"/><feOffset dx="0.1" dy="-0.1"/><feGaussianBlur stdDeviation="0.15"/><feComposite in2="hardAlpha" k2="-1" k3="1" operator="arithmetic"/><feColorMatrix values="0 0 0 0 0.286275 0 0 0 0 0.666667 0 0 0 0 0.901961 0 0 0 1 0"/><feBlend in2="effect1_innerShadow_18_20736" result="effect2_innerShadow_18_20736"/></filter><filter id="aj" x="2.5312" y="8.5938" width="26.938" height="19.055" color-interpolation-filters="sRGB" filterUnits="userSpaceOnUse"><feFlood flood-opacity="0" result="BackgroundImageFix"/><feBlend in="SourceGraphic" in2="BackgroundImageFix" result="shape"/><feGaussianBlur result="effect1_foregroundBlur_18_20736" stdDeviation="0.25"/></filter><filter id="ah" x="3.2109" y="8.4609" width="13.069" height="18.639" color-interpolation-filters="sRGB" filterUnits="userSpaceOnUse"><feFlood flood-opacity="0" result="BackgroundImageFix"/><feBlend in="SourceGraphic" in2="BackgroundImageFix" result="shape"/><feColorMatrix in="SourceAlpha" result="hardAlpha" values="0 0 0 0 0 0 0 0 0 0 0 0 0 0 0 0 0 0 127 0"/><feOffset dx="0.1" dy="0.1"/><feGaussianBlur stdDeviation="0.15"/><feComposite in2="hardAlpha" k2="-1" k3="1" operator="arithmetic"/><feColorMatrix values="0 0 0 0 0.694118 0 0 0 0 0.705882 0 0 0 0 0.733333 0 0 0 1 0"/><feBlend in2="shape" result="effect1_innerShadow_18_20736"/></filter><filter id="ag" x="16.18" y="8.4609" width="13.069" height="18.639" color-interpolation-filters="sRGB" filterUnits="userSpaceOnUse"><feFlood flood-opacity="0" result="BackgroundImageFix"/><feBlend in="SourceGraphic" in2="BackgroundImageFix" result="shape"/><feColorMatrix in="SourceAlpha" result="hardAlpha" values="0 0 0 0 0 0 0 0 0 0 0 0 0 0 0 0 0 0 127 0"/><feOffset dx="0.1" dy="0.1"/><feGaussianBlur stdDeviation="0.15"/><feComposite in2="hardAlpha" k2="-1" k3="1" operator="arithmetic"/><feColorMatrix values="0 0 0 0 0.831373 0 0 0 0 0.835294 0 0 0 0 0.854902 0 0 0 1 0"/><feBlend in2="shape" result="effect1_innerShadow_18_20736"/></filter><filter id="ae" x="4.8047" y="8.0312" width="11.475" height="19.011" color-interpolation-filters="sRGB" filterUnits="userSpaceOnUse"><feFlood flood-opacity="0" result="BackgroundImageFix"/><feBlend in="SourceGraphic" in2="BackgroundImageFix" result="shape"/><feColorMatrix in="SourceAlpha" result="hardAlpha" values="0 0 0 0 0 0 0 0 0 0 0 0 0 0 0 0 0 0 127 0"/><feOffset dy="0.05"/><feGaussianBlur stdDeviation="0.15"/><feComposite in2="hardAlpha" k2="-1" k3="1" operator="arithmetic"/><feColorMatrix values="0 0 0 0 0.827451 0 0 0 0 0.819608 0 0 0 0 0.854902 0 0 0 1 0"/><feBlend in2="shape" result="effect1_innerShadow_18_20736"/><feColorMatrix in="SourceAlpha" result="hardAlpha" values="0 0 0 0 0 0 0 0 0 0 0 0 0 0 0 0 0 0 127 0"/><feOffset dx="0.1"/><feGaussianBlur stdDeviation="0.15"/><feComposite in2="hardAlpha" k2="-1" k3="1" operator="arithmetic"/><feColorMatrix values="0 0 0 0 0.980392 0 0 0 0 0.976471 0 0 0 0 1 0 0 0 1 0"/><feBlend in2="effect1_innerShadow_18_20736" result="effect2_innerShadow_18_20736"/></filter><filter id="ad" x="16.08" y="8.0312" width="11.475" height="19.011" color-interpolation-filters="sRGB" filterUnits="userSpaceOnUse"><feFlood flood-opacity="0" result="BackgroundImageFix"/><feBlend in="SourceGraphic" in2="BackgroundImageFix" result="shape"/><feColorMatrix in="SourceAlpha" result="hardAlpha" values="0 0 0 0 0 0 0 0 0 0 0 0 0 0 0 0 0 0 127 0"/><feOffset dx="-0.1"/><feGaussianBlur stdDeviation="0.15"/><feComposite in2="hardAlpha" k2="-1" k3="1" operator="arithmetic"/><feColorMatrix values="0 0 0 0 0.980392 0 0 0 0 0.976471 0 0 0 0 1 0 0 0 1 0"/><feBlend in2="shape" result="effect1_innerShadow_18_20736"/><feColorMatrix in="SourceAlpha" result="hardAlpha" values="0 0 0 0 0 0 0 0 0 0 0 0 0 0 0 0 0 0 127 0"/><feOffset dy="0.05"/><feGaussianBlur stdDeviation="0.15"/><feComposite in2="hardAlpha" k2="-1" k3="1" operator="arithmetic"/><feColorMatrix values="0 0 0 0 0.827451 0 0 0 0 0.819608 0 0 0 0 0.854902 0 0 0 1 0"/><feBlend in2="effect1_innerShadow_18_20736" result="effect2_innerShadow_18_20736"/></filter><linearGradient id="bq" x1="16.211" x2="16.211" y1="14.438" y2="29.91" gradientUnits="userSpaceOnUse"><stop stop-color="#5DD8FB" offset="0"/><stop stop-color="#41AEF2" offset="1"/></linearGradient><radialGradient id="bi" cx="0" cy="0" r="1" gradientTransform="matrix(2 -1 1.4031 2.8062 15.375 28.531)" gradientUnits="userSpaceOnUse"><stop stop-color="#306AB3" offset=".23194"/><stop stop-color="#1A4CA8" offset="1"/></radialGradient><linearGradient id="bf" x1="16.211" x2="16.211" y1="26.781" y2="27.531" gradientUnits="userSpaceOnUse"><stop stop-color="#1748A6" offset="0"/><stop stop-color="#1748A6" stop-opacity="0" offset="1"/></linearGradient><linearGradient id="bc" x1="12.516" x2="5.2656" y1="28.656" y2="21.938" gradientUnits="userSpaceOnUse"><stop stop-color="#B3A9CF" offset=".74986"/><stop stop-color="#B6BAC5" offset=".93166"/></linearGradient><linearGradient id="ba" x1="19.844" x2="27.094" y1="28.656" y2="21.938" gradientUnits="userSpaceOnUse"><stop stop-color="#BBB3D9" offset=".71707"/><stop stop-color="#DCDDE8" offset=".91251"/></linearGradient><linearGradient id="ay" x1="27.976" x2="27.976" y1="8.8864" y2="13.327" gradientUnits="userSpaceOnUse"><stop stop-color="#D8DAE2" offset="0"/><stop stop-color="#D8DAE2" stop-opacity="0" offset="1"/></linearGradient><linearGradient id="aw" x1="16.18" x2="17.797" y1="27" y2="25.094" gradientUnits="userSpaceOnUse"><stop stop-color="#A699C9" offset="0"/><stop stop-color="#A699C9" stop-opacity="0" offset="1"/></linearGradient><linearGradient id="au" x1="4.8047" x2="15.328" y1="17.512" y2="17.512" gradientUnits="userSpaceOnUse"><stop stop-color="#F3F1FA" offset="0"/><stop stop-color="#F0EBF9" offset="1"/></linearGradient><linearGradient id="as" x1="16.18" x2="13.453" y1="25.688" y2="25.688" gradientUnits="userSpaceOnUse"><stop stop-color="#D5CCE8" offset="0"/><stop stop-color="#F2EBFF" stop-opacity="0" offset="1"/></linearGradient><linearGradient id="aq" x1="16.234" x2="16.016" y1="25.906" y2="25.906" gradientUnits="userSpaceOnUse"><stop stop-color="#BFB3D1" offset=".17857"/><stop stop-color="#BFB3D1" stop-opacity="0" offset="1"/></linearGradient><linearGradient id="bo" x1="16.18" x2="26.703" y1="17.512" y2="17.512" gradientUnits="userSpaceOnUse"><stop stop-color="#F3F1FA" offset="0"/><stop stop-color="#F0EBF9" offset="1"/></linearGradient><linearGradient id="bm" x1="16.18" x2="18.984" y1="25.688" y2="25.688" gradientUnits="userSpaceOnUse"><stop stop-color="#D5CCE8" offset="0"/><stop stop-color="#F2EBFF" stop-opacity="0" offset="1"/></linearGradient><linearGradient id="bl" x1="16.152" x2="16.359" y1="25.906" y2="25.906" gradientUnits="userSpaceOnUse"><stop stop-color="#BFB3D1" offset="0"/><stop stop-color="#BFB3D1" stop-opacity="0" offset="1"/></linearGradient><radialGradient id="bp" cx="0" cy="0" r="1" gradientTransform="matrix(-8.5049 9.1719 -9.1719 -8.5049 13.009 13.942)" gradientUnits="userSpaceOnUse"><stop stop-color="#FFF478" offset="0"/><stop stop-color="#FFB02E" offset=".47483"/><stop stop-color="#F70A8D" offset="1"/></radialGradient><radialGradient id="bh" cx="0" cy="0" r="1" gradientTransform="matrix(-8.6717 9.6722 -9.6722 -8.6717 13.009 13.942)" gradientUnits="userSpaceOnUse"><stop stop-color="#FFF478" offset="0"/><stop stop-color="#FFB02E" offset=".47483"/><stop stop-color="#F70A8D" offset="1"/></radialGradient><radialGradient id="be" cx="0" cy="0" r="1" gradientTransform="matrix(-1.1673 5.8367 -7.4757 -1.4951 9.8407 15.109)" gradientUnits="userSpaceOnUse"><stop stop-color="#F59639" stop-opacity="0" offset=".78782"/><stop stop-color="#FF7DCE" offset=".97251"/></radialGradient><radialGradient id="bb" cx="0" cy="0" r="1" gradientTransform="matrix(-9.6722 9.6722 -9.6722 -9.6722 10.508 15.609)" gradientUnits="userSpaceOnUse"><stop stop-opacity="0" offset=".31485"/><stop offset="1"/></radialGradient><radialGradient id="az" cx="0" cy="0" r="1" gradientTransform="matrix(2.0011 9.1719 -9.1719 2.0011 9.8407 16.61)" gradientUnits="userSpaceOnUse"><stop stop-color="#7D6133" stop-opacity="0" offset=".5079"/><stop stop-color="#715B32" offset="1"/></radialGradient><radialGradient id="ax" cx="0" cy="0" r="1" gradientTransform="matrix(2.5014 3.6688 -2.6593 1.8132 10.007 16.443)" gradientUnits="userSpaceOnUse"><stop stop-color="#FFB849" offset="0"/><stop stop-color="#FFB847" stop-opacity="0" offset="1"/></radialGradient><radialGradient id="av" cx="0" cy="0" r="1" gradientTransform="matrix(3.8355 .66705 -.66705 3.8355 11.342 16.943)" gradientUnits="userSpaceOnUse"><stop stop-color="#FFA64B" offset="0"/><stop stop-color="#FFAE46" stop-opacity="0" offset=".90041"/></radialGradient><radialGradient id="at" cx="0" cy="0" r="1" gradientTransform="matrix(14.175 13.674 -13.674 14.175 10.341 15.943)" gradientUnits="userSpaceOnUse"><stop stop-opacity="0" offset=".18542"/><stop stop-opacity=".4" offset="1"/></radialGradient><radialGradient id="ar" cx="0" cy="0" r="1" gradientTransform="matrix(-2.1475 2.1475 -1.1115 -1.1115 8.724 14.204)" gradientUnits="userSpaceOnUse"><stop stop-color="#392108" offset="0"/><stop stop-color="#C87928" stop-opacity="0" offset="1"/></radialGradient><radialGradient id="ap" cx="0" cy="0" r="1" gradientTransform="matrix(-1.8088 1.8088 -1.0211 -1.0211 12.024 14.489)" gradientUnits="userSpaceOnUse"><stop stop-color="#392108" offset="0"/><stop stop-color="#C87928" stop-opacity="0" offset="1"/></radialGradient><linearGradient id="bn" x1="16.5" x2="15.5" y1="8" y2="15" gradientUnits="userSpaceOnUse"><stop stop-color="#553B3E" offset="0"/><stop stop-color="#3D2432" offset="1"/></linearGradient><radialGradient id="bk" cx="0" cy="0" r="1" gradientTransform="matrix(0 1.8344 -2.8078 0 9.8407 16.61)" gradientUnits="userSpaceOnUse"><stop stop-color="#241A1A" offset=".34763"/><stop stop-color="#57444A" offset=".62823"/><stop stop-color="#4E2553" offset="1"/><stop stop-color="#502A56" offset="1"/></radialGradient><linearGradient id="a" x1="16.5" x2="15.5" y1="8" y2="15" gradientTransform="matrix(.33352 0 0 .33352 4.5043 10.94)" gradientUnits="userSpaceOnUse" xlink:href="#bn"/><filter id="an" x="2.3013" y=".6875" width="28.875" height="28.875" color-interpolation-filters="sRGB" filterUnits="userSpaceOnUse"><feFlood flood-opacity="0" result="BackgroundImageFix"/><feBlend in="SourceGraphic" in2="BackgroundImageFix" result="shape"/><feColorMatrix in="SourceAlpha" result="hardAlpha" values="0 0 0 0 0 0 0 0 0 0 0 0 0 0 0 0 0 0 127 0"/><feOffset dx="1" dy="-1"/><feGaussianBlur stdDeviation="1.5"/><feComposite in2="hardAlpha" k2="-1" k3="1" operator="arithmetic"/><feColorMatrix values="0 0 0 0 0.901961 0 0 0 0 0.133333 0 0 0 0 0.337255 0 0 0 1 0"/><feBlend in2="shape" result="effect1_innerShadow_18590_2284"/><feColorMatrix in="SourceAlpha" result="hardAlpha" values="0 0 0 0 0 0 0 0 0 0 0 0 0 0 0 0 0 0 127 0"/><feOffset dy="-1"/><feGaussianBlur stdDeviation="1.5"/><feComposite in2="hardAlpha" k2="-1" k3="1" operator="arithmetic"/><feColorMatrix values="0 0 0 0 0.85098 0 0 0 0 0.168627 0 0 0 0 0.231373 0 0 0 1 0"/><feBlend in2="effect1_innerShadow_18590_2284" result="effect2_innerShadow_18590_2284"/></filter><linearGradient id="br" x1="16.239" x2="16.239" y1="5.262" y2="38.515" gradientUnits="userSpaceOnUse"><stop stop-color="#FF4D91" offset="0"/><stop stop-color="#F34A5F" offset="1"/></linearGradient><radialGradient id="bj" cx="0" cy="0" r="1" gradientTransform="matrix(-1.5625 1.4688 -1.7155 -1.825 27.958 3.7812)" gradientUnits="userSpaceOnUse"><stop stop-color="#FF77B1" offset="0"/><stop stop-color="#FF77B1" stop-opacity="0" offset="1"/></radialGradient><filter id="am" x="25.739" y="1.4375" width="5.5" height="28.375" color-interpolation-filters="sRGB" filterUnits="userSpaceOnUse"><feFlood flood-opacity="0" result="BackgroundImageFix"/><feBlend in="SourceGraphic" in2="BackgroundImageFix" result="shape"/><feGaussianBlur result="effect1_foregroundBlur_18590_2284" stdDeviation="1"/></filter><linearGradient id="bg" x1="28.989" x2="28.989" y1="4.1875" y2="27.062" gradientUnits="userSpaceOnUse"><stop stop-color="#FF66A5" offset="0"/><stop stop-color="#FF5B6B" offset="1"/></linearGradient><filter id="ak" x="3.0151" y=".75" width="27.281" height="5.5" color-interpolation-filters="sRGB" filterUnits="userSpaceOnUse"><feFlood flood-opacity="0" result="BackgroundImageFix"/><feBlend in="SourceGraphic" in2="BackgroundImageFix" result="shape"/><feGaussianBlur result="effect1_foregroundBlur_18590_2284" stdDeviation="1"/></filter><linearGradient id="bd" x1="28.703" x2="3.1714" y1="3.75" y2="3.75" gradientUnits="userSpaceOnUse"><stop stop-color="#FF60A3" offset="0"/><stop stop-color="#FF5495" offset="1"/></linearGradient><filter id="ai" x="8.6399" y="6.3137" width="16.032" height="18.623" color-interpolation-filters="sRGB" filterUnits="userSpaceOnUse"><feFlood flood-opacity="0" result="BackgroundImageFix"/><feBlend in="SourceGraphic" in2="BackgroundImageFix" result="shape"/><feGaussianBlur result="effect1_foregroundBlur_18590_2284" stdDeviation="0.5"/></filter><filter id="af" x="9.2399" y="6.9137" width="14.832" height="17.423" color-interpolation-filters="sRGB" filterUnits="userSpaceOnUse"><feFlood flood-opacity="0" result="BackgroundImageFix"/><feBlend in="SourceGraphic" in2="BackgroundImageFix" result="shape"/><feColorMatrix in="SourceAlpha" result="hardAlpha" values="0 0 0 0 0 0 0 0 0 0 0 0 0 0 0 0 0 0 127 0"/><feOffset dx="-0.4" dy="0.4"/><feGaussianBlur stdDeviation="0.375"/><feComposite in2="hardAlpha" k2="-1" k3="1" operator="arithmetic"/><feColorMatrix values="0 0 0 0 0.913725 0 0 0 0 0.886275 0 0 0 0 0.968627 0 0 0 1 0"/><feBlend in2="shape" result="effect1_innerShadow_18590_2284"/><feColorMatrix in="SourceAlpha" result="hardAlpha" values="0 0 0 0 0 0 0 0 0 0 0 0 0 0 0 0 0 0 127 0"/><feOffset dx="0.4" dy="-0.4"/><feGaussianBlur stdDeviation="0.2"/><feComposite in2="hardAlpha" k2="-1" k3="1" operator="arithmetic"/><feColorMatrix values="0 0 0 0 1 0 0 0 0 0.988235 0 0 0 0 1 0 0 0 1 0"/><feBlend in2="effect1_innerShadow_18590_2284" result="effect2_innerShadow_18590_2284"/></filter><radialGradient id="n" cx="0" cy="0" r="1" gradientTransform="matrix(-8.5049 9.1719 -9.1719 -8.5049 13.009 13.942)" gradientUnits="userSpaceOnUse" xlink:href="#bp"/><radialGradient id="m" cx="0" cy="0" r="1" gradientTransform="matrix(-8.6717 9.6722 -9.6722 -8.6717 13.009 13.942)" gradientUnits="userSpaceOnUse" xlink:href="#bh"/><radialGradient id="l" cx="0" cy="0" r="1" gradientTransform="matrix(-1.1673 5.8367 -7.4757 -1.4951 9.8407 15.109)" gradientUnits="userSpaceOnUse" xlink:href="#be"/><radialGradient id="k" cx="0" cy="0" r="1" gradientTransform="matrix(-9.6722 9.6722 -9.6722 -9.6722 10.508 15.609)" gradientUnits="userSpaceOnUse" xlink:href="#bb"/><radialGradient id="j" cx="0" cy="0" r="1" gradientTransform="matrix(2.0011 9.1719 -9.1719 2.0011 9.8407 16.61)" gradientUnits="userSpaceOnUse" xlink:href="#az"/><radialGradient id="i" cx="0" cy="0" r="1" gradientTransform="matrix(2.5014 3.6688 -2.6593 1.8132 10.007 16.443)" gradientUnits="userSpaceOnUse" xlink:href="#ax"/><radialGradient id="h" cx="0" cy="0" r="1" gradientTransform="matrix(3.8355 .66705 -.66705 3.8355 11.342 16.943)" gradientUnits="userSpaceOnUse" xlink:href="#av"/><radialGradient id="g" cx="0" cy="0" r="1" gradientTransform="matrix(14.175 13.674 -13.674 14.175 10.341 15.943)" gradientUnits="userSpaceOnUse" xlink:href="#at"/><radialGradient id="f" cx="0" cy="0" r="1" gradientTransform="matrix(-2.1475 2.1475 -1.1115 -1.1115 8.724 14.204)" gradientUnits="userSpaceOnUse" xlink:href="#ar"/><radialGradient id="e" cx="0" cy="0" r="1" gradientTransform="matrix(-1.8088 1.8088 -1.0211 -1.0211 12.024 14.489)" gradientUnits="userSpaceOnUse" xlink:href="#ap"/><radialGradient id="d" cx="0" cy="0" r="1" gradientTransform="matrix(0 1.8344 -2.8078 0 9.8407 16.61)" gradientUnits="userSpaceOnUse" xlink:href="#bk"/><linearGradient id="ac" x1="16.239" x2="16.239" y1="5.262" y2="38.515" gradientUnits="userSpaceOnUse" xlink:href="#br"/><radialGradient id="c" cx="0" cy="0" r="1" gradientTransform="matrix(-1.5625 1.4688 -1.7155 -1.825 27.958 3.7812)" gradientUnits="userSpaceOnUse" xlink:href="#bj"/><linearGradient id="ab" x1="28.989" x2="28.989" y1="4.1875" y2="27.062" gradientUnits="userSpaceOnUse" xlink:href="#bg"/><linearGradient id="aa" x1="28.703" x2="3.1714" y1="3.75" y2="3.75" gradientUnits="userSpaceOnUse" xlink:href="#bd"/><linearGradient id="z" x1="16.211" x2="16.211" y1="14.438" y2="29.91" gradientUnits="userSpaceOnUse" xlink:href="#bq"/><radialGradient id="b" cx="0" cy="0" r="1" gradientTransform="matrix(2 -1 1.4031 2.8062 15.375 28.531)" gradientUnits="userSpaceOnUse" xlink:href="#bi"/><linearGradient id="y" x1="16.211" x2="16.211" y1="26.781" y2="27.531" gradientUnits="userSpaceOnUse" xlink:href="#bf"/><linearGradient id="x" x1="12.516" x2="5.2656" y1="28.656" y2="21.938" gradientUnits="userSpaceOnUse" xlink:href="#bc"/><linearGradient id="w" x1="19.844" x2="27.094" y1="28.656" y2="21.938" gradientUnits="userSpaceOnUse" xlink:href="#ba"/><linearGradient id="v" x1="27.976" x2="27.976" y1="8.8864" y2="13.327" gradientUnits="userSpaceOnUse" xlink:href="#ay"/><linearGradient id="u" x1="16.18" x2="17.797" y1="27" y2="25.094" gradientUnits="userSpaceOnUse" xlink:href="#aw"/><linearGradient id="t" x1="4.8047" x2="15.328" y1="17.512" y2="17.512" gradientUnits="userSpaceOnUse" xlink:href="#au"/><linearGradient id="s" x1="16.18" x2="13.453" y1="25.688" y2="25.688" gradientUnits="userSpaceOnUse" xlink:href="#as"/><linearGradient id="r" x1="16.234" x2="16.016" y1="25.906" y2="25.906" gradientUnits="userSpaceOnUse" xlink:href="#aq"/><linearGradient id="q" x1="16.18" x2="26.703" y1="17.512" y2="17.512" gradientUnits="userSpaceOnUse" xlink:href="#bo"/><linearGradient id="p" x1="16.18" x2="18.984" y1="25.688" y2="25.688" gradientUnits="userSpaceOnUse" xlink:href="#bm"/><linearGradient id="o" x1="16.152" x2="16.359" y1="25.906" y2="25.906" gradientUnits="userSpaceOnUse" xlink:href="#bl"/></defs><g transform="translate(-2.2281 -5.4471)"><g filter="url(#ao)"><path d="m3.5781 11.031c-0.69036 0-1.25 0.5597-1.25 1.25v16.391c0 0.6903 0.55964 1.25 1.25 1.25h11.004c0.3184 0.5709 0.9283 0.957 1.6284 0.957s1.3101-0.3861 1.6285-0.957h11.004c0.6903 0 1.25-0.5597 1.25-1.25v-16.391c0-0.6903-0.5597-1.25-1.25-1.25z" fill="#3e6aca"/></g><g filter="url(#al)"><path d="m3.5781 10.062c-0.69036 0-1.25 0.5596-1.25 1.25v16.391c0 0.6904 0.55964 1.25 1.25 1.25h11.004c0.3184 0.5709 0.9283 0.9571 1.6284 0.9571s1.3101-0.3862 1.6285-0.9571h11.004c0.6903 0 1.25-0.5596 1.25-1.25v-16.391c0-0.6904-0.5597-1.25-1.25-1.25z" fill="url(#z)"/></g><g filter="url(#aj)"><path d="m4.8104 9.0938-1.5656 1.9416c-0.1383 0.1715-0.2135 0.3833-0.2135 0.6015v14.294c0 0.6723 0.55963 1.2173 1.25 1.2173h23.438c0.6903 0 1.25-0.545 1.25-1.2173v-14.294c0-0.2182-0.0752-0.43-0.2136-0.6015l-1.5656-1.9416-1.8415 14.646h-18.696z" fill="#3f9bea"/></g><path d="m14.773 25.703h2.875v1.5782c0 0.7939-0.6436 1.4375-1.4375 1.4375s-1.4375-0.6436-1.4375-1.4376z" fill="url(#b)"/><path d="m14.773 25.703h2.875v1.5782c0 0.7939-0.6436 1.4375-1.4375 1.4375s-1.4375-0.6436-1.4375-1.4376z" fill="url(#y)"/><g filter="url(#ah)"><path d="m3.4244 10.455 1.5656-1.9938 1.8415 15.039h9.3481v3.5h-11.719c-0.69036 0-1.25-0.5596-1.25-1.25v-14.678c0-0.224 0.07518-0.4415 0.21351-0.6176z" fill="url(#x)"/></g><g filter="url(#ag)"><path d="m28.935 10.455-1.5656-1.9938-1.8415 15.039h-9.3481v3.5h11.719c0.6904 0 1.25-0.5596 1.25-1.25v-14.678c0-0.224-0.0751-0.4415-0.2135-0.6176z" fill="url(#w)"/><path d="m28.935 10.455-1.5656-1.9938-1.8415 15.039h-9.3481v3.5h11.719c0.6904 0 1.25-0.5596 1.25-1.25v-14.678c0-0.224-0.0751-0.4415-0.2135-0.6176z" fill="url(#v)"/></g><path d="m28.935 10.455-1.5656-1.9938-1.8415 15.039h-9.3481v3.5h11.719c0.6904 0 1.25-0.5596 1.25-1.25v-14.678c0-0.224-0.0751-0.4415-0.2135-0.6176z" fill="url(#u)"/><g filter="url(#ae)"><path d="m4.8047 9.0312c0-0.55228 0.44771-1 1-1h7.875c1.3807 0 2.5 1.1193 2.5 2.5v16.461c0-1.1003-1.1328-1.9922-2.4453-1.9922h-7.6797c-0.69036 0-1.25-0.5596-1.25-1.25z" fill="url(#t)"/><path d="m4.8047 9.0312c0-0.55228 0.44771-1 1-1h7.875c1.3807 0 2.5 1.1193 2.5 2.5v16.461c0-1.1003-1.1328-1.9922-2.4453-1.9922h-7.6797c-0.69036 0-1.25-0.5596-1.25-1.25z" fill="url(#s)"/><path d="m4.8047 9.0312c0-0.55228 0.44771-1 1-1h7.875c1.3807 0 2.5 1.1193 2.5 2.5v16.461c0-1.1003-1.1328-1.9922-2.4453-1.9922h-7.6797c-0.69036 0-1.25-0.5596-1.25-1.25z" fill="url(#r)"/></g><g filter="url(#ad)"><path d="m27.555 9.0312c0-0.55228-0.4477-1-1-1h-7.875c-1.3807 0-2.5 1.1193-2.5 2.5v16.461c0-1.1003 1.1328-1.9922 2.4453-1.9922h7.6797c0.6903 0 1.25-0.5596 1.25-1.25z" fill="url(#q)"/><path d="m27.555 9.0312c0-0.55228-0.4477-1-1-1h-7.875c-1.3807 0-2.5 1.1193-2.5 2.5v16.461c0-1.1003 1.1328-1.9922 2.4453-1.9922h7.6797c0.6903 0 1.25-0.5596 1.25-1.25z" fill="url(#p)"/><path d="m27.555 9.0312c0-0.55228-0.4477-1-1-1h-7.875c-1.3807 0-2.5 1.1193-2.5 2.5v16.461c0-1.1003 1.1328-1.9922 2.4453-1.9922h7.6797c0.6903 0 1.25-0.5596 1.25-1.25z" fill="url(#o)"/></g><g transform="translate(.21824 .32737)" stroke-width=".33352"><path d="m9.8403 20.945c3.1133 0 4.669-2.0904 4.669-4.669 0-2.5786-1.5557-4.669-4.669-4.669-3.1133 0-4.669 2.0904-4.669 4.669 0 2.5786 1.5557 4.669 4.669 4.669z" fill="url(#n)"/><path d="m9.8403 20.945c3.1133 0 4.669-2.0904 4.669-4.669 0-2.5786-1.5557-4.669-4.669-4.669-3.1133 0-4.669 2.0904-4.669 4.669 0 2.5786 1.5557 4.669 4.669 4.669z" fill="url(#m)"/><path d="m9.8403 20.945c3.1133 0 4.669-2.0904 4.669-4.669 0-2.5786-1.5557-4.669-4.669-4.669-3.1133 0-4.669 2.0904-4.669 4.669 0 2.5786 1.5557 4.669 4.669 4.669z" fill="url(#l)"/><path d="m9.8403 20.945c3.1133 0 4.669-2.0904 4.669-4.669 0-2.5786-1.5557-4.669-4.669-4.669-3.1133 0-4.669 2.0904-4.669 4.669 0 2.5786 1.5557 4.669 4.669 4.669z" fill="url(#k)" fill-opacity=".6"/><path d="m9.8403 20.945c3.1133 0 4.669-2.0904 4.669-4.669 0-2.5786-1.5557-4.669-4.669-4.669-3.1133 0-4.669 2.0904-4.669 4.669 0 2.5786 1.5557 4.669 4.669 4.669z" fill="url(#j)"/><path d="m9.8403 20.945c3.1133 0 4.669-2.0904 4.669-4.669 0-2.5786-1.5557-4.669-4.669-4.669-3.1133 0-4.669 2.0904-4.669 4.669 0 2.5786 1.5557 4.669 4.669 4.669z" fill="url(#i)"/><path d="m9.8403 20.945c3.1133 0 4.669-2.0904 4.669-4.669 0-2.5786-1.5557-4.669-4.669-4.669-3.1133 0-4.669 2.0904-4.669 4.669 0 2.5786 1.5557 4.669 4.669 4.669z" fill="url(#h)"/><path d="m9.8403 20.945c3.1133 0 4.669-2.0904 4.669-4.669 0-2.5786-1.5557-4.669-4.669-4.669-3.1133 0-4.669 2.0904-4.669 4.669 0 2.5786 1.5557 4.669 4.669 4.669z" fill="url(#g)"/><circle cx="7.5117" cy="15.416" r="1.5587" fill="url(#f)"/><circle cx="10.923" cy="15.59" r="1.4156" fill="url(#e)"/><path d="m7.9793 16.351c0.77474 0 1.4028-0.62803 1.4028-1.4028 0-0.77475-0.62806-1.4028-1.4028-1.4028-0.77474 0-1.4028 0.62805-1.4028 1.4028 0 0.77474 0.62805 1.4028 1.4028 1.4028z" fill="#fff"/><path d="m11.698 16.377c0.78178 0 1.4156-0.63376 1.4156-1.4156 0-0.7818-0.6338-1.4156-1.4156-1.4156-0.78182 0-1.4156 0.63378-1.4156 1.4156 0 0.78182 0.63376 1.4156 1.4156 1.4156z" fill="#fff"/><path d="m8.1731 15.943c0.55262 0 1.0006-0.44796 1.0006-1.0006s-0.44796-1.0006-1.0006-1.0006c-0.5526 0-1.0006 0.44796-1.0006 1.0006s0.44797 1.0006 1.0006 1.0006z" fill="url(#a)"/><path d="m11.508 15.943c0.55262 0 1.0006-0.44796 1.0006-1.0006s-0.44796-1.0006-1.0006-1.0006-1.0006 0.44796-1.0006 1.0006 0.44796 1.0006 1.0006 1.0006z" fill="url(#a)"/><path d="m7.973 17.01c0.14735-0.11053 0.3564-0.08068 0.46693 0.06671 0.10316 0.13754 0.57089 0.53364 1.4008 0.53364 0.82988 0 1.2976-0.39609 1.4008-0.53364 0.1105-0.14738 0.31955-0.17724 0.46693-0.06671 0.14735 0.1105 0.1772 0.31955 0.06671 0.46693-0.23036 0.30711-0.89661 0.80046-1.9344 0.80046-1.0379 0-1.7041-0.49335-1.9344-0.80046-0.11053-0.14738-0.08067-0.35644 0.066705-0.46693z" clip-rule="evenodd" fill="url(#d)" fill-rule="evenodd"/></g><g transform="matrix(1.417 0 0 1.417 25.842 4.6137)"><g transform="matrix(.21564 0 0 .21564 -8.1476 5.2739)" filter="url(#an)"><rect x="2.3013" y="1.6875" width="27.875" height="27.875" rx="3.6" fill="url(#ac)"/><rect x="2.3013" y="1.6875" width="27.875" height="27.875" rx="3.6" fill="url(#c)"/></g><g transform="matrix(.21564 0 0 .21564 -8.1476 5.2739)" filter="url(#am)"><path d="m28.489 4.1875v22.875" stroke="url(#ab)" stroke-linecap="round" stroke-width="1.5"/></g><g transform="matrix(.21564 0 0 .21564 -8.1476 5.2739)" filter="url(#ak)"><path d="m5.7651 3.5h21.781" stroke="url(#aa)" stroke-linecap="round" stroke-width="1.5"/></g><g transform="matrix(.21564 0 0 .21564 -8.1476 5.2739)" filter="url(#ai)"><path d="m18.193 8.4031c-0.2699-0.662-0.9153-1.0933-1.6302-1.0894-0.7149 0.00392-1.3555 0.44228-1.6181 1.1072l-5.1818 13.122c-0.35499 0.899 0.08597 1.9155 0.98492 2.2705 0.8989 0.355 1.9155-0.086 2.2704-0.9849l0.7099-1.7977c0.0151-0.0382 0.052-0.0632 0.093-0.0632h5.6469c0.0406 0 0.0772 0.0246 0.0926 0.0622l0.7405 1.8165c0.3648 0.895 1.3861 1.3248 2.2811 0.9599 0.895-0.3648 1.3248-1.3861 0.9599-2.2811zm-0.1407 8.9268c0.0268 0.0658-0.0216 0.1378-0.0926 0.1378h-2.6774c-0.0706 0-0.119-0.0712-0.0931-0.1368l1.3175-3.3362c0.0331-0.0838 0.1516-0.0845 0.1856-1e-3z" fill="#ef2b54"/></g><g transform="matrix(.21564 0 0 .21564 -8.1476 5.2739)" filter="url(#af)"><path d="m18.193 8.4031c-0.2699-0.662-0.9153-1.0933-1.6302-1.0894-0.7149 0.00392-1.3555 0.44228-1.6181 1.1072l-5.1818 13.122c-0.35499 0.899 0.08597 1.9155 0.98492 2.2705 0.8989 0.355 1.9155-0.086 2.2704-0.9849l0.7099-1.7977c0.0151-0.0382 0.052-0.0632 0.093-0.0632h5.6469c0.0406 0 0.0772 0.0246 0.0926 0.0622l0.7405 1.8165c0.3648 0.895 1.3861 1.3248 2.2811 0.9599 0.895-0.3648 1.3248-1.3861 0.9599-2.2811zm-0.1407 8.9268c0.0268 0.0658-0.0216 0.1378-0.0926 0.1378h-2.6774c-0.0706 0-0.119-0.0712-0.0931-0.1368l1.3175-3.3362c0.0331-0.0838 0.1516-0.0845 0.1856-1e-3z" fill="#fcf2ff"/></g></g><g filter="url(#ao)"><path d="m3.5781 11.031c-0.69036 0-1.25 0.5597-1.25 1.25v16.391c0 0.6903 0.55964 1.25 1.25 1.25h11.004c0.3184 0.5709 0.9283 0.957 1.6284 0.957s1.3101-0.3861 1.6285-0.957h11.004c0.6903 0 1.25-0.5597 1.25-1.25v-16.391c0-0.6903-0.5597-1.25-1.25-1.25z" fill="#3e6aca"/></g><g filter="url(#al)"><path d="m3.5781 10.062c-0.69036 0-1.25 0.5596-1.25 1.25v16.391c0 0.6904 0.55964 1.25 1.25 1.25h11.004c0.3184 0.5709 0.9283 0.9571 1.6284 0.9571s1.3101-0.3862 1.6285-0.9571h11.004c0.6903 0 1.25-0.5596 1.25-1.25v-16.391c0-0.6904-0.5597-1.25-1.25-1.25z" fill="url(#z)"/></g><g filter="url(#aj)"><path d="m4.8104 9.0938-1.5656 1.9416c-0.1383 0.1715-0.2135 0.3833-0.2135 0.6015v14.294c0 0.6723 0.55963 1.2173 1.25 1.2173h23.438c0.6903 0 1.25-0.545 1.25-1.2173v-14.294c0-0.2182-0.0752-0.43-0.2136-0.6015l-1.5656-1.9416-1.8415 14.646h-18.696z" fill="#3f9bea"/></g><path d="m14.773 25.703h2.875v1.5782c0 0.7939-0.6436 1.4375-1.4375 1.4375s-1.4375-0.6436-1.4375-1.4376z" fill="url(#b)"/><path d="m14.773 25.703h2.875v1.5782c0 0.7939-0.6436 1.4375-1.4375 1.4375s-1.4375-0.6436-1.4375-1.4376z" fill="url(#y)"/><g filter="url(#ah)"><path d="m3.4244 10.455 1.5656-1.9938 1.8415 15.039h9.3481v3.5h-11.719c-0.69036 0-1.25-0.5596-1.25-1.25v-14.678c0-0.224 0.07518-0.4415 0.21351-0.6176z" fill="url(#x)"/></g><g filter="url(#ag)"><path d="m28.935 10.455-1.5656-1.9938-1.8415 15.039h-9.3481v3.5h11.719c0.6904 0 1.25-0.5596 1.25-1.25v-14.678c0-0.224-0.0751-0.4415-0.2135-0.6176z" fill="url(#w)"/><path d="m28.935 10.455-1.5656-1.9938-1.8415 15.039h-9.3481v3.5h11.719c0.6904 0 1.25-0.5596 1.25-1.25v-14.678c0-0.224-0.0751-0.4415-0.2135-0.6176z" fill="url(#v)"/></g><path d="m28.935 10.455-1.5656-1.9938-1.8415 15.039h-9.3481v3.5h11.719c0.6904 0 1.25-0.5596 1.25-1.25v-14.678c0-0.224-0.0751-0.4415-0.2135-0.6176z" fill="url(#u)"/><g filter="url(#ae)"><path d="m4.8047 9.0312c0-0.55228 0.44771-1 1-1h7.875c1.3807 0 2.5 1.1193 2.5 2.5v16.461c0-1.1003-1.1328-1.9922-2.4453-1.9922h-7.6797c-0.69036 0-1.25-0.5596-1.25-1.25z" fill="url(#t)"/><path d="m4.8047 9.0312c0-0.55228 0.44771-1 1-1h7.875c1.3807 0 2.5 1.1193 2.5 2.5v16.461c0-1.1003-1.1328-1.9922-2.4453-1.9922h-7.6797c-0.69036 0-1.25-0.5596-1.25-1.25z" fill="url(#s)"/><path d="m4.8047 9.0312c0-0.55228 0.44771-1 1-1h7.875c1.3807 0 2.5 1.1193 2.5 2.5v16.461c0-1.1003-1.1328-1.9922-2.4453-1.9922h-7.6797c-0.69036 0-1.25-0.5596-1.25-1.25z" fill="url(#r)"/></g><g filter="url(#ad)"><path d="m27.555 9.0312c0-0.55228-0.4477-1-1-1h-7.875c-1.3807 0-2.5 1.1193-2.5 2.5v16.461c0-1.1003 1.1328-1.9922 2.4453-1.9922h7.6797c0.6903 0 1.25-0.5596 1.25-1.25z" fill="url(#q)"/><path d="m27.555 9.0312c0-0.55228-0.4477-1-1-1h-7.875c-1.3807 0-2.5 1.1193-2.5 2.5v16.461c0-1.1003 1.1328-1.9922 2.4453-1.9922h7.6797c0.6903 0 1.25-0.5596 1.25-1.25z" fill="url(#p)"/><path d="m27.555 9.0312c0-0.55228-0.4477-1-1-1h-7.875c-1.3807 0-2.5 1.1193-2.5 2.5v16.461c0-1.1003 1.1328-1.9922 2.4453-1.9922h7.6797c0.6903 0 1.25-0.5596 1.25-1.25z" fill="url(#o)"/></g></g><g transform="translate(-2.1736 -5.7199)" stroke-width=".33352"><path d="m9.8403 20.945c3.1133 0 4.669-2.0904 4.669-4.669 0-2.5786-1.5557-4.669-4.669-4.669-3.1133 0-4.669 2.0904-4.669 4.669 0 2.5786 1.5557 4.669 4.669 4.669z" fill="url(#n)"/><path d="m9.8403 20.945c3.1133 0 4.669-2.0904 4.669-4.669 0-2.5786-1.5557-4.669-4.669-4.669-3.1133 0-4.669 2.0904-4.669 4.669 0 2.5786 1.5557 4.669 4.669 4.669z" fill="url(#m)"/><path d="m9.8403 20.945c3.1133 0 4.669-2.0904 4.669-4.669 0-2.5786-1.5557-4.669-4.669-4.669-3.1133 0-4.669 2.0904-4.669 4.669 0 2.5786 1.5557 4.669 4.669 4.669z" fill="url(#l)"/><path d="m9.8403 20.945c3.1133 0 4.669-2.0904 4.669-4.669 0-2.5786-1.5557-4.669-4.669-4.669-3.1133 0-4.669 2.0904-4.669 4.669 0 2.5786 1.5557 4.669 4.669 4.669z" fill="url(#k)" fill-opacity=".6"/><path d="m9.8403 20.945c3.1133 0 4.669-2.0904 4.669-4.669 0-2.5786-1.5557-4.669-4.669-4.669-3.1133 0-4.669 2.0904-4.669 4.669 0 2.5786 1.5557 4.669 4.669 4.669z" fill="url(#j)"/><path d="m9.8403 20.945c3.1133 0 4.669-2.0904 4.669-4.669 0-2.5786-1.5557-4.669-4.669-4.669-3.1133 0-4.669 2.0904-4.669 4.669 0 2.5786 1.5557 4.669 4.669 4.669z" fill="url(#i)"/><path d="m9.8403 20.945c3.1133 0 4.669-2.0904 4.669-4.669 0-2.5786-1.5557-4.669-4.669-4.669-3.1133 0-4.669 2.0904-4.669 4.669 0 2.5786 1.5557 4.669 4.669 4.669z" fill="url(#h)"/><path d="m9.8403 20.945c3.1133 0 4.669-2.0904 4.669-4.669 0-2.5786-1.5557-4.669-4.669-4.669-3.1133 0-4.669 2.0904-4.669 4.669 0 2.5786 1.5557 4.669 4.669 4.669z" fill="url(#g)"/><circle cx="7.5117" cy="15.416" r="1.5587" fill="url(#f)"/><circle cx="10.923" cy="15.59" r="1.4156" fill="url(#e)"/><path d="m7.9793 16.351c0.77474 0 1.4028-0.62803 1.4028-1.4028 0-0.77475-0.62806-1.4028-1.4028-1.4028-0.77474 0-1.4028 0.62805-1.4028 1.4028 0 0.77474 0.62805 1.4028 1.4028 1.4028z" fill="#fff"/><path d="m11.698 16.377c0.78178 0 1.4156-0.63376 1.4156-1.4156 0-0.7818-0.6338-1.4156-1.4156-1.4156-0.78182 0-1.4156 0.63378-1.4156 1.4156 0 0.78182 0.63376 1.4156 1.4156 1.4156z" fill="#fff"/><path d="m8.1731 15.943c0.55262 0 1.0006-0.44796 1.0006-1.0006s-0.44796-1.0006-1.0006-1.0006c-0.5526 0-1.0006 0.44796-1.0006 1.0006s0.44797 1.0006 1.0006 1.0006z" fill="url(#a)"/><path d="m11.508 15.943c0.55262 0 1.0006-0.44796 1.0006-1.0006s-0.44796-1.0006-1.0006-1.0006-1.0006 0.44796-1.0006 1.0006 0.44796 1.0006 1.0006 1.0006z" fill="url(#a)"/><path d="m7.973 17.01c0.14735-0.11053 0.3564-0.08068 0.46693 0.06671 0.10316 0.13754 0.57089 0.53364 1.4008 0.53364 0.82988 0 1.2976-0.39609 1.4008-0.53364 0.1105-0.14738 0.31955-0.17724 0.46693-0.06671 0.14735 0.1105 0.1772 0.31955 0.06671 0.46693-0.23036 0.30711-0.89661 0.80046-1.9344 0.80046-1.0379 0-1.7041-0.49335-1.9344-0.80046-0.11053-0.14738-0.08067-0.35644 0.066705-0.46693z" clip-rule="evenodd" fill="url(#d)" fill-rule="evenodd"/></g><g transform="matrix(1.417 0 0 1.417 27.192 -1.7064)"><g transform="matrix(.21564 0 0 .21564 -8.1476 5.2739)" filter="url(#an)"><rect x="2.3013" y="1.6875" width="27.875" height="27.875" rx="3.6" fill="url(#ac)"/><rect x="2.3013" y="1.6875" width="27.875" height="27.875" rx="3.6" fill="url(#c)"/></g><g transform="matrix(.21564 0 0 .21564 -8.1476 5.2739)" filter="url(#am)"><path d="m28.489 4.1875v22.875" stroke="url(#ab)" stroke-linecap="round" stroke-width="1.5"/></g><g transform="matrix(.21564 0 0 .21564 -8.1476 5.2739)" filter="url(#ak)"><path d="m5.7651 3.5h21.781" stroke="url(#aa)" stroke-linecap="round" stroke-width="1.5"/></g><g transform="matrix(.21564 0 0 .21564 -8.1476 5.2739)" filter="url(#ai)"><path d="m18.193 8.4031c-0.2699-0.662-0.9153-1.0933-1.6302-1.0894-0.7149 0.00392-1.3555 0.44228-1.6181 1.1072l-5.1818 13.122c-0.35499 0.899 0.08597 1.9155 0.98492 2.2705 0.8989 0.355 1.9155-0.086 2.2704-0.9849l0.7099-1.7977c0.0151-0.0382 0.052-0.0632 0.093-0.0632h5.6469c0.0406 0 0.0772 0.0246 0.0926 0.0622l0.7405 1.8165c0.3648 0.895 1.3861 1.3248 2.2811 0.9599 0.895-0.3648 1.3248-1.3861 0.9599-2.2811zm-0.1407 8.9268c0.0268 0.0658-0.0216 0.1378-0.0926 0.1378h-2.6774c-0.0706 0-0.119-0.0712-0.0931-0.1368l1.3175-3.3362c0.0331-0.0838 0.1516-0.0845 0.1856-1e-3z" fill="#ef2b54"/></g><g transform="matrix(.21564 0 0 .21564 -8.1476 5.2739)" filter="url(#af)"><path d="m18.193 8.4031c-0.2699-0.662-0.9153-1.0933-1.6302-1.0894-0.7149 0.00392-1.3555 0.44228-1.6181 1.1072l-5.1818 13.122c-0.35499 0.899 0.08597 1.9155 0.98492 2.2705 0.8989 0.355 1.9155-0.086 2.2704-0.9849l0.7099-1.7977c0.0151-0.0382 0.052-0.0632 0.093-0.0632h5.6469c0.0406 0 0.0772 0.0246 0.0926 0.0622l0.7405 1.8165c0.3648 0.895 1.3861 1.3248 2.2811 0.9599 0.895-0.3648 1.3248-1.3861 0.9599-2.2811zm-0.1407 8.9268c0.0268 0.0658-0.0216 0.1378-0.0926 0.1378h-2.6774c-0.0706 0-0.119-0.0712-0.0931-0.1368l1.3175-3.3362c0.0331-0.0838 0.1516-0.0845 0.1856-1e-3z" fill="#fcf2ff"/></g></g></svg>
